<svg width="48" height="48" viewBox="0 0 48 48" fill="none" xmlns="http://www.w3.org/2000/svg">
<path d="M24 42.5004C23.7059 42.5033 23.4186 42.4122 23.18 42.2404C22.58 41.8604 8.5 32.4004 8.5 20.9004C8.5 16.7895 10.133 12.847 13.0398 9.94024C15.9467 7.03342 19.8891 5.40039 24 5.40039C28.1109 5.40039 32.0533 7.03342 34.9602 9.94024C37.867 12.847 39.5 16.7895 39.5 20.9004C39.5 32.4004 25.5 41.8604 24.82 42.2404C24.5814 42.4122 24.2941 42.5033 24 42.5004ZM24 8.50039C20.6988 8.48975 17.5284 9.78958 15.1848 12.1145C12.8411 14.4393 11.5159 17.5993 11.5 20.9004C11.5 29.3204 21.08 37.0204 24 39.1604C26.92 37.0204 36.5 29.3204 36.5 20.9004C36.4841 17.5993 35.1589 14.4393 32.8152 12.1145C30.4716 9.78958 27.3012 8.48975 24 8.50039Z" fill="#7DA0CA"/>
<path d="M24 25.5C22.9122 25.5 21.8488 25.1774 20.9444 24.5731C20.0399 23.9687 19.3349 23.1098 18.9187 22.1048C18.5024 21.0998 18.3935 19.9939 18.6057 18.927C18.8179 17.8601 19.3417 16.8801 20.1109 16.1109C20.8801 15.3417 21.8601 14.8179 22.927 14.6057C23.9939 14.3935 25.0998 14.5024 26.1048 14.9187C27.1098 15.3349 27.9687 16.0399 28.5731 16.9444C29.1774 17.8488 29.5 18.9122 29.5 20C29.5 21.4587 28.9205 22.8576 27.8891 23.8891C26.8576 24.9205 25.4587 25.5 24 25.5ZM24 17.5C23.5055 17.5 23.0222 17.6466 22.6111 17.9213C22.2 18.196 21.8795 18.5865 21.6903 19.0433C21.5011 19.5001 21.4516 20.0028 21.548 20.4877C21.6445 20.9727 21.8826 21.4181 22.2322 21.7678C22.5819 22.1174 23.0273 22.3555 23.5123 22.452C23.9972 22.5484 24.4999 22.4989 24.9567 22.3097C25.4135 22.1205 25.804 21.8001 26.0787 21.3889C26.3534 20.9778 26.5 20.4945 26.5 20C26.5 19.337 26.2366 18.7011 25.7678 18.2322C25.2989 17.7634 24.663 17.5 24 17.5Z" fill="#7DA0CA"/>
</svg>
