<svg width="36" height="36" viewBox="0 0 36 36" fill="none" xmlns="http://www.w3.org/2000/svg">
<path fill-rule="evenodd" clip-rule="evenodd" d="M8.68296 21.0305C8.74741 21.0519 8.81368 21.0675 8.88096 21.077C9.30534 22.077 9.72734 23.078 10.147 24.08C10.9015 25.883 11.662 27.74 11.8285 28.274C12.037 28.931 12.256 29.378 12.496 29.684C12.6205 29.84 12.763 29.978 12.931 30.083C13.0185 30.1377 13.1121 30.182 13.21 30.215C13.69 30.395 14.128 30.32 14.4025 30.2285C14.5635 30.1735 14.7168 30.0979 14.8585 30.0035L14.866 30.0005L19.105 27.3575L24.0025 31.1105C24.0745 31.166 24.1525 31.2125 24.2365 31.25C24.8245 31.505 25.3945 31.595 25.9315 31.523C26.4655 31.448 26.89 31.2245 27.2065 30.971C27.5699 30.678 27.8596 30.3041 28.0525 29.879L28.066 29.846L28.0705 29.834L28.0735 29.828V29.825L28.075 29.8235C28.101 29.7589 28.1211 29.6922 28.135 29.624L32.605 7.08647C32.6191 7.01433 32.6261 6.94098 32.626 6.86747C32.626 6.20747 32.377 5.57897 31.7935 5.19947C31.2925 4.87397 30.736 4.85897 30.3835 4.88597C30.0055 4.91597 29.6545 5.00897 29.419 5.08397C29.2871 5.12575 29.157 5.17279 29.029 5.22497L29.0125 5.23247L3.94146 15.0665L3.93846 15.068C3.85363 15.0992 3.77007 15.1337 3.68796 15.1715C3.48915 15.2608 3.29844 15.3672 3.11796 15.4895C2.77746 15.722 1.99296 16.361 2.12646 17.417C2.23146 18.257 2.80746 18.7745 3.15996 19.0235C3.35196 19.16 3.53496 19.2575 3.66996 19.322C3.72996 19.352 3.85896 19.403 3.91446 19.427L3.92946 19.4315L8.68296 21.0305ZM29.89 7.30247H29.887C29.8741 7.3082 29.8611 7.3137 29.848 7.31897L4.74696 17.1665C4.73405 17.1717 4.72104 17.1767 4.70796 17.1815L4.69296 17.186C4.64711 17.204 4.60206 17.224 4.55796 17.246C4.59971 17.2699 4.64278 17.2914 4.68696 17.3105L9.39996 18.8975C9.48418 18.9259 9.56474 18.9641 9.63996 19.0115L25.2055 9.89897L25.2205 9.89147C25.2809 9.85473 25.343 9.82069 25.4065 9.78947C25.5145 9.73397 25.687 9.65297 25.882 9.59297C26.017 9.55097 26.4175 9.43247 26.8495 9.57197C27.0786 9.64419 27.2828 9.7794 27.4388 9.96215C27.5947 10.1449 27.6962 10.3678 27.7315 10.6055C27.7873 10.8136 27.7889 11.0326 27.736 11.2415C27.631 11.654 27.343 11.975 27.079 12.221C26.854 12.431 23.9365 15.245 21.058 18.023L17.1385 21.803L16.441 22.478L25.249 29.231C25.3678 29.2809 25.497 29.3014 25.6255 29.291C25.6902 29.2822 25.7511 29.2551 25.801 29.213C25.8618 29.1616 25.9139 29.1009 25.9555 29.033L25.9585 29.0315L30.2935 7.17197C30.1569 7.20481 30.023 7.24794 29.893 7.30097L29.89 7.30247ZM17.1985 25.8935L15.4405 24.5465L15.0145 27.254L17.1985 25.8935ZM13.828 21.8735L15.5755 20.186L19.495 16.403L20.9545 14.996L11.1745 20.7215L11.227 20.8445C11.8438 22.3016 12.4538 23.7616 13.057 25.2245L13.4815 22.5245C13.5199 22.274 13.642 22.0455 13.828 21.8735Z" fill="#7DA0CA"/>
</svg>
