<svg width="48" height="48" viewBox="0 0 48 48" fill="none" xmlns="http://www.w3.org/2000/svg">
<path d="M24 42C20.4399 42 16.9598 40.9443 13.9997 38.9665C11.0397 36.9886 8.73255 34.1774 7.37018 30.8883C6.0078 27.5992 5.65134 23.98 6.34587 20.4884C7.04041 16.9967 8.75474 13.7894 11.2721 11.2721C13.7894 8.75474 16.9967 7.04041 20.4884 6.34587C23.98 5.65134 27.5992 6.0078 30.8883 7.37018C34.1774 8.73255 36.9886 11.0397 38.9665 13.9997C40.9443 16.9598 42 20.4399 42 24C42 28.7739 40.1036 33.3523 36.7279 36.7279C33.3523 40.1036 28.7739 42 24 42ZM24 9.00001C21.0333 9.00001 18.1332 9.87974 15.6665 11.528C13.1997 13.1762 11.2771 15.5189 10.1418 18.2598C9.0065 21.0006 8.70945 24.0166 9.28823 26.9264C9.86701 29.8361 11.2956 32.5088 13.3934 34.6066C15.4912 36.7044 18.1639 38.133 21.0737 38.7118C23.9834 39.2906 26.9994 38.9935 29.7403 37.8582C32.4812 36.7229 34.8238 34.8003 36.4721 32.3336C38.1203 29.8668 39 26.9667 39 24C39 20.0218 37.4197 16.2065 34.6066 13.3934C31.7936 10.5804 27.9783 9.00001 24 9.00001Z" fill="#7DA0CA"/>
<path d="M30 25.5H24C23.6038 25.4948 23.2253 25.3351 22.9451 25.0549C22.6649 24.7747 22.5052 24.3962 22.5 24V14C22.5 13.6022 22.658 13.2206 22.9393 12.9393C23.2206 12.658 23.6022 12.5 24 12.5C24.3978 12.5 24.7794 12.658 25.0607 12.9393C25.342 13.2206 25.5 13.6022 25.5 14V22.5H30C30.3978 22.5 30.7794 22.658 31.0607 22.9393C31.342 23.2206 31.5 23.6022 31.5 24C31.5 24.3978 31.342 24.7794 31.0607 25.0607C30.7794 25.342 30.3978 25.5 30 25.5Z" fill="#7DA0CA"/>
</svg>
