<?xml version="1.0" encoding="UTF-8" standalone="no"?>
<!DOCTYPE svg PUBLIC "-//W3C//DTD SVG 1.1//EN" ''>
<!-- Created with Vectornator (http://vectornator.io/) -->
<svg height="100%" stroke-miterlimit="10" style="fill-rule:nonzero;clip-rule:evenodd;stroke-linecap:round;stroke-linejoin:round;" version="1.1" viewBox="0 0 32 32" width="100%" xml:space="preserve" xmlns="http://www.w3.org/2000/svg" xmlns:vectornator= xmlns:xlink="http://www.w3.org/1999/xlink">
<defs/>
<g id="Без-названия">
<path d="M8 0L24 0C28.4183 0 32 3.58172 32 8L32 24C32 28.4183 28.4183 32 24 32L8 32C3.58172 32 5.41083e-16 28.4183 0 24L0 8C0 3.58172 3.58172 8.11625e-16 8 0Z" fill="#5483b3" fill-rule="nonzero" opacity="1" stroke="none" vectornator:layerName="rect"/>
<path d="M21.1074 16.208C21.1074 15.6557 20.6597 15.208 20.1074 15.208L8.10742 15.208C7.55513 15.208 7.10742 15.6557 7.10742 16.208C7.10742 16.7603 7.55513 17.208 8.10742 17.208L20.1074 17.208C20.6597 17.208 21.1074 16.7603 21.1074 16.208Z" fill="#ffffff" fill-rule="nonzero" opacity="1" stroke="none" vectornator:layerName="path"/>
<path d="M15.33 11.2589C14.9395 10.8683 14.9395 10.2352 15.33 9.84465C15.7206 9.45413 16.3537 9.45412 16.7443 9.84465L18.8656 11.966C20.8656 13.966 21.8656 14.966 21.8656 16.2087C21.8656 17.4513 20.8656 18.4513 18.8656 20.4513L16.7443 22.5726C16.3537 22.9631 15.7206 22.9631 15.33 22.5726C14.9395 22.1821 14.9395 21.5489 15.33 21.1584L17.4514 19.0371C18.7847 17.7037 19.4514 17.0371 19.4514 16.2087C19.4514 15.3802 18.7847 14.7136 17.4514 13.3802L15.33 11.2589Z" fill="#ffffff" fill-rule="nonzero" opacity="1" stroke="none" vectornator:layerName="path"/>
</g>
</svg>
