<svg width="32" height="32" viewBox="0 0 32 32" fill="none" xmlns="http://www.w3.org/2000/svg">
<rect width="32" height="32" rx="8" fill="#052659"/>
<path d="M21.1074 16.208C21.1074 15.6557 20.6597 15.208 20.1074 15.208H8.10742C7.55513 15.208 7.10742 15.6557 7.10742 16.208C7.10742 16.7603 7.55513 17.208 8.10742 17.208H20.1074C20.6597 17.208 21.1074 16.7603 21.1074 16.208Z" fill="white"/>
<path d="M15.33 11.2589C14.9395 10.8683 14.9395 10.2352 15.33 9.84465C15.7206 9.45413 16.3537 9.45412 16.7443 9.84465L18.8656 11.966C20.8656 13.966 21.8656 14.966 21.8656 16.2087C21.8656 17.4513 20.8656 18.4513 18.8656 20.4513L16.7443 22.5726C16.3537 22.9631 15.7206 22.9631 15.33 22.5726C14.9395 22.1821 14.9395 21.5489 15.33 21.1584L17.4514 19.0371C18.7847 17.7037 19.4514 17.0371 19.4514 16.2087C19.4514 15.3802 18.7847 14.7136 17.4514 13.3802L15.33 11.2589Z" fill="white"/>
</svg>
